<svg height="512pt" viewBox="-43 0 512 512" width="512pt" xmlns="http://www.w3.org/2000/svg"><path d="m97.175781 467.242188-16.769531 34.78125c-4.398438 8.488281-14.753906 11.933593-23.359375 7.773437s-12.339844-14.414063-8.421875-23.132813l23.039062-47.667968zm0 0" fill="#2c2f38"/><path d="m357.503906 438.996094 23.039063 47.667968c3.917969 8.71875.1875 18.972657-8.421875 23.132813-8.605469 4.160156-18.960938.714844-23.355469-7.773437l-16.773437-34.78125zm0 0" fill="#2c2f38"/><g fill="#a5a5a4"><path d="m196.929688 123.585938h35.308593v36.195312h-35.308593zm0 0"/><path d="m123.925781 183.96875-24.894531-27.898438-39.460938 35.3125 23.484376 26.304688zm0 0"/><path d="m303.390625 182.90625 24.011719-26.835938 39.457031 35.3125-22.15625 24.804688zm0 0"/></g><path d="m391.136719 335.449219c0 97.507812-79.046875 176.550781-176.550781 176.550781-97.507813 0-176.554688-79.042969-176.554688-176.550781 0-97.507813 79.046875-176.550781 176.554688-176.550781 97.503906 0 176.550781 79.042968 176.550781 176.550781zm0 0" fill="#c03a2b"/><path d="m355.824219 335.449219c0 3-.085938 5.914062-.261719 8.828125-1.160156 18.765625-6.085938 37.109375-14.480469 53.933594-2.5625 5.328124-5.511719 10.464843-8.824219 15.363281-10.402343 15.695312-23.851562 29.144531-39.550781 39.546875-4.894531 3.3125-10.03125 6.261718-15.359375 8.828125-16.824218 8.394531-35.167968 13.316406-53.9375 14.476562-2.910156.175781-5.824218.265625-8.824218.265625-3.003907 0-5.917969-.089844-8.828126-.265625-18.769531-1.160156-37.113281-6.082031-53.9375-14.476562-5.328124-2.566407-10.460937-5.515625-15.359374-8.828125-15.699219-10.402344-29.148438-23.851563-39.546876-39.546875-3.316406-4.898438-6.265624-10.035157-8.828124-15.363281-1.238282-2.46875-2.382813-5.03125-3.445313-7.589844-6.300781-14.703125-10.035156-30.378906-11.03125-46.34375-.179687-2.914063-.265625-5.828125-.265625-8.828125 0-3.003907.085938-5.914063.265625-8.828125 1.15625-18.769532 6.082031-37.109375 14.476563-53.9375 2.5625-5.328125 5.511718-10.460938 8.828124-15.359375 10.398438-15.699219 23.847657-29.144531 39.546876-39.546875 4.898437-3.3125 10.03125-6.265625 15.359374-8.828125 16.824219-8.394531 35.167969-13.320313 53.9375-14.476563 2.910157-.175781 5.824219-.265625 8.828126-.265625 3 0 5.914062.089844 8.824218.265625 18.769532 1.15625 37.113282 6.082032 53.9375 14.476563 5.328125 2.5625 10.464844 5.515625 15.359375 8.828125 15.699219 10.402344 29.148438 23.847656 39.550781 39.546875 2.109376 3.054687 4.027344 6.238281 5.734376 9.535156 1.148437 1.941406 2.121093 3.882813 3.089843 5.824219 8.394531 16.828125 13.320313 35.167968 14.480469 53.9375.175781 2.914062.261719 5.824218.261719 8.828125zm0 0" fill="#90bae1"/><path d="m332.257812 257.324219-15.097656 8.652343c-2.277344 1.308594-3.835937 3.582032-4.238281 6.179688-30.597656 7.074219-60.542969 16.730469-89.511719 28.863281v-53.847656c0-4.875-3.949218-8.828125-8.824218-8.828125s-8.828126 3.953125-8.828126 8.828125v61.707031c-44.5625 20.457032-85.472656 48.070313-121.117187 81.742188-6.300781-14.703125-10.035156-30.378906-11.03125-46.34375h17.390625c4.875 0 8.824219-3.953125 8.824219-8.828125s-3.949219-8.828125-8.824219-8.828125h-17.390625c1.15625-18.769532 6.082031-37.109375 14.476563-53.9375l15.09375 8.652344c1.316406.757812 2.808593 1.152343 4.324218 1.148437 3.167969.011719 6.097656-1.671875 7.683594-4.414063 2.433594-4.222656 1.015625-9.617187-3.179688-12.09375l-15.09375-8.652343c10.398438-15.699219 23.847657-29.144531 39.546876-39.546875l8.648437 15.09375c1.167969 2.042968 3.109375 3.527344 5.382813 4.125 2.273437.597656 4.691406.257812 6.710937-.945313 4.207031-2.425781 5.664063-7.789062 3.269531-12.007812l-8.652344-15.09375c16.824219-8.394531 35.167969-13.320313 53.9375-14.476563v17.390625c0 4.875 3.953126 8.828125 8.828126 8.828125s8.824218-3.953125 8.824218-8.828125v-17.390625c18.769532 1.15625 37.113282 6.082032 53.9375 14.476563l-8.648437 15.09375c-2.398438 4.21875-.9375 9.582031 3.265625 12.007812 2.019531 1.203125 4.4375 1.542969 6.710937.945313 2.273438-.597656 4.214844-2.082032 5.382813-4.125l8.648437-15.09375c15.699219 10.402344 29.148438 23.847656 39.550781 39.546875zm0 0" fill="#b0d3f0"/><path d="m66.105469 100.015625c3.589843-16.601563 14.003906-30.925781 28.6875-39.457031 28.515625-16.507813 69.914062-25.25 119.792969-25.25 49.875 0 91.277343 8.742187 119.789062 25.25 15.050781 8.773437 25.601562 23.597656 28.953125 40.695312l36.636719 22.332032v-9.851563c.113281-34.46875-18.140625-66.386719-47.910156-83.765625-27.882813-16.128906-71.140626-29.96875-137.46875-29.96875-66.332032 0-109.585938 13.839844-137.472657 29.96875-29.765625 17.378906-48.023437 49.296875-47.910156 83.765625v9.851563zm0 0" fill="#a5a5a4"/><path d="m188.101562 88.277344h52.964844c9.75 0 17.65625 7.902344 17.65625 17.652344v8.828124c0 4.875-3.953125 8.828126-8.828125 8.828126h-70.621093c-4.875 0-8.828126-3.953126-8.828126-8.828126v-8.828124c0-9.75 7.90625-17.652344 17.65625-17.652344zm0 0" fill="#d1d4d1"/><path d="m223.410156 194.472656v17.390625c0 4.875-3.949218 8.828125-8.824218 8.828125s-8.828126-3.953125-8.828126-8.828125v-17.390625c2.910157-.175781 5.824219-.265625 8.828126-.265625 3 0 5.914062.089844 8.824218.265625zm0 0" fill="#5e5f62"/><path d="m223.410156 459.035156v17.390625c-2.910156.175781-5.824218.265625-8.824218.265625-3.003907 0-5.917969-.089844-8.828126-.265625v-17.390625c0-4.875 3.953126-8.828125 8.828126-8.828125s8.824218 3.953125 8.824218 8.828125zm0 0" fill="#2c2f38"/><path d="m157.203125 236.050781c-2.019531 1.203125-4.4375 1.542969-6.710937.945313-2.273438-.597656-4.214844-2.082032-5.382813-4.125l-8.648437-15.09375c4.898437-3.3125 10.03125-6.265625 15.359374-8.828125l8.652344 15.09375c2.394532 4.21875.9375 9.582031-3.269531 12.007812zm0 0" fill="#5e5f62"/><path d="m292.707031 453.121094c-4.894531 3.3125-10.03125 6.261718-15.359375 8.828125l-8.648437-15.097657c-1.578125-2.742187-1.570313-6.121093.015625-8.855468 1.589844-2.738282 4.515625-4.421875 7.679687-4.414063 3.164063.003907 6.085938 1.699219 7.664063 4.441407zm0 0" fill="#2c2f38"/><path d="m115.1875 278.070312c-1.585938 2.742188-4.515625 4.425782-7.683594 4.414063-1.515625.003906-3.007812-.390625-4.324218-1.148437l-15.09375-8.652344c2.5625-5.328125 5.511718-10.460938 8.828124-15.359375l15.09375 8.652343c4.195313 2.476563 5.613282 7.871094 3.179688 12.09375zm0 0" fill="#5e5f62"/><path d="m341.082031 398.210938c-2.5625 5.328124-5.511719 10.464843-8.824219 15.363281l-15.097656-8.652344c-4.242187-2.4375-5.703125-7.851563-3.265625-12.09375s7.851563-5.703125 12.09375-3.265625zm0 0" fill="#2c2f38"/><path d="m99.824219 335.449219c0 4.875-3.949219 8.828125-8.824219 8.828125h-17.390625c-.179687-2.914063-.265625-5.828125-.265625-8.828125 0-3.003907.085938-5.914063.265625-8.828125h17.390625c4.875 0 8.824219 3.953125 8.824219 8.828125zm0 0" fill="#5e5f62"/><path d="m355.824219 335.449219c0 3-.085938 5.914062-.261719 8.828125h-17.390625c-4.875 0-8.828125-3.953125-8.828125-8.828125s3.953125-8.828125 8.828125-8.828125h17.390625c.175781 2.914062.261719 5.824218.261719 8.828125zm0 0" fill="#2c2f38"/><path d="m112.007812 404.921875-15.09375 8.652344c-3.316406-4.898438-6.265624-10.035157-8.828124-15.363281l15.09375-8.648438c2.746093-1.578125 6.121093-1.570312 8.859374.015625 2.738282 1.589844 4.417969 4.515625 4.414063 7.679687-.007813 3.164063-1.703125 6.085938-4.445313 7.664063zm0 0" fill="#2c2f38"/><path d="m337.992188 266.859375c-8.5625 1.585937-16.945313 3.351563-25.070313 5.296875.402344-2.597656 1.960937-4.871094 4.238281-6.179688l15.097656-8.652343c1.324219 2.03125 2.648438 4.0625 3.792969 6.089843.707031 1.148438 1.324219 2.296876 1.941407 3.445313zm0 0" fill="#5e5f62"/><path d="m341.082031 272.683594-15.09375 8.652344c-1.316406.757812-2.808593 1.152343-4.324219 1.148437-2.613281.011719-5.09375-1.132813-6.78125-3.128906-1.683593-1.992188-2.402343-4.628907-1.960937-7.199219 8.125-1.945312 16.507813-3.710938 25.070313-5.296875 1.148437 1.941406 2.121093 3.882813 3.089843 5.824219zm0 0" fill="#2c2f38"/><path d="m160.472656 446.851562-8.652344 15.097657c-5.328124-2.566407-10.460937-5.515625-15.359374-8.828125l8.648437-15.097656c1.578125-2.742188 4.5-4.4375 7.664063-4.441407 3.164062-.007812 6.09375 1.675781 7.679687 4.414063 1.589844 2.734375 1.59375 6.113281.019531 8.855468zm0 0" fill="#2c2f38"/><path d="m292.707031 217.777344-8.648437 15.09375c-1.167969 2.042968-3.109375 3.527344-5.382813 4.125-2.273437.597656-4.691406.257812-6.710937-.945313-4.203125-2.425781-5.664063-7.789062-3.265625-12.007812l8.648437-15.09375c5.328125 2.5625 10.464844 5.515625 15.359375 8.828125zm0 0" fill="#5e5f62"/><path d="m232.238281 335.449219c0 9.75-7.902343 17.652343-17.652343 17.652343-9.753907 0-17.65625-7.902343-17.65625-17.652343s7.902343-17.65625 17.65625-17.65625c9.75 0 17.652343 7.90625 17.652343 17.65625zm0 0" fill="#2c2f38"/><path d="m223.410156 247.171875v53.847656c-6.089844 2.5625-11.914062 5.210938-17.652344 7.859375v-61.707031c0-4.875 3.953126-8.828125 8.828126-8.828125s8.824218 3.953125 8.824218 8.828125zm0 0" fill="#5e5f62"/><path d="m223.410156 301.019531v16.773438c0 4.875-3.949218 8.828125-8.824218 8.828125s-8.828126-3.953125-8.828126-8.828125v-8.914063c5.738282-2.648437 11.5625-5.296875 17.652344-7.859375zm0 0" fill="#2c2f38"/><path d="m276.378906 344.277344h-44.140625c-4.875 0-8.828125-3.953125-8.828125-8.828125s3.953125-8.828125 8.828125-8.828125h44.140625c4.875 0 8.824219 3.953125 8.824219 8.828125s-3.949219 8.828125-8.824219 8.828125zm0 0" fill="#2c2f38"/><path d="m111.824219 104.164062 20.160156 22.582032-105.355469 94.023437-20.15625-22.574219c-14.855468-16.628906-3.265625-51.199218 25.796875-77.132812 29.058594-25.9375 64.703125-33.574219 79.554688-16.898438zm0 0" fill="#d1d4d1"/><path d="m314.617188 104.164062-20.152344 22.582032 105.359375 94.023437 20.152343-22.574219c14.847657-16.628906 3.257813-51.199218-25.804687-77.132812-29.058594-25.9375-64.695313-33.574219-79.554687-16.898438zm0 0" fill="#d1d4d1"/></svg>