<svg id="icons" enable-background="new 0 0 64 64" height="512" viewBox="0 0 64 64" width="512" xmlns="http://www.w3.org/2000/svg"><path d="m26.79 59.99h10.41c-1.03 1.8-2.98 3.02-5.2 3.02-2.229 0-4.18-1.22-5.21-3.02z" fill="#656d78"/><path d="m44 51.03v4l-24 .92v-4z" fill="#ccd1d9"/><path d="m44 46.99v4.04l-24 .92v-4.96z" fill="#ccd1d9"/><path d="m44 55.03v2.96l-2.01 2h-4.79-10.41-4.79l-2-2v-2.04z" fill="#ccd1d9"/><path d="m32 6.99c9.38 0 17 7.61 17 17s-7.62 17-17 17c-9.391 0-17-7.61-17-17s7.609-17 17-17z" fill="#ffce54"/><path d="m32 6.99c-.507 0-1.006.032-1.501.076 8.677.761 15.498 8.041 15.498 16.924s-6.821 16.163-15.498 16.924c.495.044.994.076 1.501.076 9.38 0 17-7.61 17-17s-7.62-17-17-17z" fill="#f6bb42"/><path d="m55 23.99c0 8.3-4.41 15.58-11 19.62v3.38h-24v-3.38c-6.6-4.04-11-11.32-11-19.62 0-12.7 10.29-23 23-23 12.7 0 23 10.3 23 23zm-6 0c0-9.39-7.62-17-17-17-9.391 0-17 7.61-17 17s7.609 17 17 17c9.38 0 17-7.61 17-17z" fill="#e6e9ed"/><path d="m20 52.991c-.533 0-.976-.421-.998-.958-.023-.552.405-1.019.957-1.041l23.998-1c.562-.024 1.019.405 1.041.957.023.552-.405 1.019-.957 1.041l-23.998 1c-.015.001-.028.001-.043.001z" fill="#e6e9ed"/><path d="m20 56.991c-.533 0-.976-.421-.998-.958-.023-.552.405-1.019.957-1.041l23.998-1c.562-.025 1.019.405 1.041.957.023.552-.405 1.019-.957 1.041l-23.998 1c-.015.001-.028.001-.043.001z" fill="#e6e9ed"/><g fill="#edab37"><path d="m21 24.997c-.256 0-.512-.098-.707-.293-.391-.391-.391-1.023 0-1.414l5.002-5.003c.391-.391 1.023-.391 1.414 0s.391 1.023 0 1.414l-5.002 5.003c-.195.195-.451.293-.707.293z"/><path d="m26.002 29.999c-.256 0-.512-.098-.707-.293l-5.002-5.002c-.391-.391-.391-1.023 0-1.414s1.023-.391 1.414 0l5.002 5.002c.391.391.391 1.023 0 1.414-.195.195-.451.293-.707.293z"/><path d="m42.999 24.997c-.256 0-.512-.098-.707-.293l-5.002-5.003c-.391-.391-.391-1.023 0-1.414s1.023-.391 1.414 0l5.002 5.003c.391.391.391 1.023 0 1.414-.195.195-.451.293-.707.293z"/><path d="m37.997 29.999c-.256 0-.512-.098-.707-.293-.391-.391-.391-1.023 0-1.414l5.002-5.002c.391-.391 1.023-.391 1.414 0s.391 1.023 0 1.414l-5.002 5.002c-.195.195-.451.293-.707.293z"/><path d="m29.992 33.002c-.08 0-.162-.01-.243-.03-.536-.134-.862-.677-.728-1.212l4.001-16.01c.134-.536.676-.864 1.212-.728.536.134.862.677.728 1.212l-4.001 16.01c-.113.455-.521.758-.969.758z"/></g></svg>