<svg height="512pt" viewBox="-31 0 512 512.00014" width="512pt" xmlns="http://www.w3.org/2000/svg"><path d="m449.996094 466v46h-449.996094v-46c0-57.898438 47.101562-105 105-105h239.996094c57.902344 0 105 47.101562 105 105zm0 0" fill="#384949"/><path d="m449.996094 466v46h-224.996094v-151h119.996094c57.902344 0 105 47.101562 105 105zm0 0" fill="#293939"/><path d="m335.996094 43.902344c-30.898438-28.199219-69.597656-44.199219-110.996094-43.89843775-5.402344 0-10.800781.30078175-16.199219.90234375-83.402343 7.796875-148.800781 83.796875-148.800781 171.398438v53.699218c0 29.699219 7.800781 57.597656 21.597656 81.597656-12.898437 7.800782-21.597656 22.199219-21.597656 38.398438 0 57.902344 47.097656 105 105 105h90c74.398438 0 134.996094-60.601562 134.996094-135v-149.996094c0-46.5-19.796875-90.902344-54-122.101562zm0 0" fill="#4a696f"/><g fill="#384949"><path d="m389.996094 166.003906v149.996094c0 74.398438-60.597656 135-134.996094 135h-30v-450.99609375c41.398438-.30078125 80.097656 15.69921875 110.996094 43.89843775 34.203125 31.199218 54 75.601562 54 122.101562zm0 0"/><path d="m329.996094 271.003906c0 105.597656-53.097656 119.996094-104.996094 119.996094s-105-14.398438-105-119.996094c0-9.601562.300781-19.203125 1.5-28.800781h207c1.199219 9.597656 1.496094 19.199219 1.496094 28.800781zm0 0"/><path d="m309.597656 151.003906-39.601562 30h-89.996094l-39.601562-30c18.300781-51.898437 48.300781-90 84.601562-90 36.296875 0 66.296875 38.101563 84.597656 90zm0 0"/></g><path d="m269.996094 181.003906h-44.996094v-120c36.300781 0 66.296875 38.101563 84.597656 90zm0 0" fill="#293939"/><path d="m329.996094 271.003906c0 105.597656-53.097656 119.996094-104.996094 119.996094v-148.796875h103.496094c1.203125 9.597656 1.5 19.199219 1.5 28.800781zm0 0" fill="#293939"/><path d="m328.496094 242.203125c-7.5 50.398437-51 88.796875-103.496094 88.796875-52.5 0-96-38.398438-103.5-88.796875 1.5-22.5 5.398438-45 11.097656-66 2.101563-8.703125 4.800782-17.101563 7.800782-25.199219h169.199218c3 8.097656 5.699219 16.496094 7.800782 25.199219 5.699218 21 9.601562 43.5 11.097656 66zm0 0" fill="#ffd396"/><path d="m328.496094 242.203125c-7.5 50.398437-51 88.796875-103.496094 88.796875v-179.996094h84.597656c3 8.101563 5.699219 16.5 7.800782 25.199219 5.699218 21 9.601562 43.5 11.097656 66zm0 0" fill="#ffb64c"/></svg>