<svg id="icons" enable-background="new 0 0 64 64" height="512" viewBox="0 0 64 64" width="512" xmlns="http://www.w3.org/2000/svg"><path d="m45.009 47.83 2.83-2.82 1.41-1.419 12.58 12.58c1.56 1.56 1.56 4.09 0 5.659-1.561 1.561-4.1 1.561-5.66.001l-12.581-12.58z" fill="#656d78"/><path d="m47.839 45.01-2.83 2.82-4.51-4.51c.51-.43 1-.88 1.47-1.35.48-.48.931-.971 1.351-1.48l4.51 4.511z" fill="#ccd1d9"/><path d="m39.849 39.85c8.2-8.2 8.2-21.5 0-29.699-8.199-8.2-21.5-8.199-29.699 0-8.2 8.2-8.2 21.5 0 29.7 8.198 8.2 21.499 8.2 29.699-.001zm2.12-31.82c8.891 8.891 9.351 23.03 1.351 32.46-.42.51-.87 1-1.351 1.48-.47.47-.96.92-1.47 1.35-9.42 8-23.571 7.551-32.47-1.35-9.37-9.37-9.37-24.57-.001-33.94 9.371-9.369 24.571-9.38 33.941 0z" fill="#e6e9ed"/><path d="m39.849 10.15c8.2 8.199 8.2 21.499 0 29.699-8.199 8.201-21.501 8.201-29.699.001-8.2-8.2-8.2-21.5 0-29.7 8.199-8.199 21.499-8.2 29.699 0zm.15 14.851c-.001-8.28-6.721-15-15-15-8.28 0-15 6.72-15 15 0 8.279 6.72 14.999 15 14.999 8.28.001 15-6.72 15-14.999z" fill="#5d9cec"/><path d="m24.999 10.001c8.279 0 14.999 6.72 15 15 0 8.279-6.72 15-15 14.999-8.28 0-15-6.72-15-14.999 0-8.28 6.72-15 15-15z" fill="#e6e9ed"/><path d="m45.007 49.247c-.391.39-1.023.391-1.414 0s-.392-1.023 0-1.415l4.24-4.241c.391-.391 1.023-.392 1.414 0 .391.39.391 1.023 0 1.414z" fill="#656d78"/><g fill="#ccd1d9"><path d="m16.709 25.713c-.39.39-1.023.391-1.414 0-.39-.391-.391-1.023 0-1.414l4-4.002c.391-.391 1.023-.391 1.415 0 .39.39.391 1.023 0 1.414z"/><path d="m20.71 29.714c-.391.391-1.023.391-1.414 0l-4.001-4.001c-.391-.392-.391-1.023 0-1.414.391-.392 1.023-.392 1.414 0l4.001 4.001c.392.39.392 1.022 0 1.414z"/><path d="m34.704 25.713c-.391.392-1.024.391-1.414 0l-4.001-4.002c-.391-.391-.391-1.024 0-1.414.391-.391 1.023-.391 1.414 0l4.001 4.002c.391.39.39 1.024 0 1.414z"/><path d="m34.704 25.713-4.001 4.001c-.391.392-1.023.392-1.414 0-.391-.391-.391-1.023 0-1.414l4.001-4.001c.391-.391 1.023-.391 1.414 0s.391 1.023 0 1.414z"/><path d="m24.7 32.716c-.215.215-.524.33-.849.284-.547-.079-.928-.585-.85-1.131l1.999-14.009c.08-.547.585-.927 1.131-.85.547.079.927.585.85 1.132l-1.999 14.008c-.032.223-.134.418-.282.566z"/></g></svg>