<svg id="icons" enable-background="new 0 0 64 64" height="512" viewBox="0 0 64 64" width="512" xmlns="http://www.w3.org/2000/svg"><path d="m47 18.5v4c-2.761-3.609-4.83-4.869-7-4.99l5.39-6.01c1.03 2.111 1.61 4.49 1.61 7z" fill="#f6bb42"/><path d="m17 20.77c-.65-.068-1.311-.158-2-.27v-2c0-8.84 7.159-16 16-16 6.319 0 11.79 3.67 14.39 9l-5.39 6.01c-1.29-.068-2.61.271-4.141.76h-.01c-2.8.91-6.27 2.342-11.43 2.711-2.159.15-4.6.119-7.419-.211z" fill="#ffce54"/><path d="m35.859 18.27c3.601 1.521 6.141 5.07 6.141 9.23 0 5.521-4.48 10.001-10 10.001-5.53 0-10-4.48-10-10.001 0-2.49.909-4.77 2.42-6.52 5.16-.369 8.63-1.801 11.43-2.711h.009z" fill="#5d9cec"/><path d="m47 22.5v5c0 5.761-3.24 10.761-8 13.271-2.091 1.101-4.471 1.73-7 1.73-2.53 0-4.91-.63-7-1.73-4.761-2.51-8-7.51-8-13.271v-6.73c2.819.33 5.26.361 7.42.211-1.511 1.749-2.42 4.029-2.42 6.519 0 5.521 4.47 10.001 10 10.001 5.52 0 10-4.48 10-10.001 0-4.16-2.54-7.709-6.141-9.23 1.53-.488 2.851-.828 4.141-.76 2.17.121 4.239 1.381 7 4.99z" fill="#eac6bb"/><path d="m43.997 19.252v8.248c0 5.761-3.24 10.761-8 13.271-1.671.88-3.529 1.452-5.499 1.649.495.049.994.081 1.502.081 2.529 0 4.909-.63 7-1.73 4.76-2.51 8-7.51 8-13.271v-5c-1.094-1.43-2.077-2.479-3.003-3.248z" fill="#d3b1a9"/><path d="m36 47.5 3-2h6c4.42 0 8 3.58 8 8v7c0 .55-.45 1-1 1h-17l-2-11 2-3.25z" fill="#e6e9ed"/><path d="m45 45.5h-3.003c4.42 0 8 3.58 8 8v7c0 .55-.45 1-1 1h3.003c.55 0 1-.45 1-1v-7c0-4.42-3.58-8-8-8z" fill="#ccd1d9"/><path d="m39 40.771v4.729l-3 2-1-.25-3-.75-3 .75-1 .25-3-2v-4.729c2.09 1.101 4.47 1.73 7 1.73 2.529 0 4.909-.63 7-1.73z" fill="#f5f7fa"/><path d="m35 47.25-2 3.25h-2l-2-3.25 3-.75z" fill="#5d9cec"/><path d="m33 50.5 2 11h-6l2-11z" fill="#4a89dc"/><path d="m29 47.25 2 3.25-2 11h-17c-.561 0-1-.45-1-1v-7c0-4.42 3.58-8 8-8h6l3 2z" fill="#e6e9ed"/><g fill="#4a89dc"><path d="m26 28.499c-.256 0-.512-.098-.707-.293-.391-.39-.391-1.023 0-1.414l1.999-1.999c.391-.391 1.023-.391 1.414 0 .391.39.391 1.023 0 1.414l-1.999 1.999c-.195.195-.451.293-.707.293z"/><path d="m27.999 30.498c-.256 0-.512-.098-.707-.293l-1.999-1.999c-.391-.391-.391-1.024 0-1.414.391-.391 1.023-.391 1.414 0l1.999 1.999c.391.391.391 1.024 0 1.414-.195.195-.451.293-.707.293z"/><path d="m38.003 28.499c-.256 0-.512-.098-.707-.293l-1.999-1.999c-.391-.391-.391-1.024 0-1.414.391-.391 1.023-.391 1.414 0l1.999 1.999c.391.391.391 1.024 0 1.414-.195.195-.451.293-.707.293z"/><path d="m36.004 30.498c-.256 0-.512-.098-.707-.293-.391-.39-.391-1.023 0-1.414l1.999-1.999c.391-.391 1.023-.391 1.414 0 .391.39.391 1.023 0 1.414l-1.999 1.999c-.195.195-.451.293-.707.293z"/><path d="m31.001 31.5c-.104 0-.211-.018-.316-.053-.523-.174-.807-.74-.632-1.264l1.999-6c.175-.523.736-.81 1.265-.633.523.176.807.741.632 1.266l-1.999 5.998c-.14.42-.53.686-.949.686z"/></g></svg>