<svg height="503pt" viewBox="-24 0 503 503.99971" width="503pt" xmlns="http://www.w3.org/2000/svg"><path d="m320.484375 344.007812v-40.03125l-18.558594-1.761718c-24.640625 21.121094-51.761719 33.761718-73.441406 33.761718s-48.800781-12.640624-73.441406-33.761718l-18.558594 1.761718v40.03125c-79.542969 56.871094-135.984375 40-135.984375 112v47.992188h455.96875s0-15.992188 0-47.992188c0-72-56.441406-55.128906-135.984375-112zm0 0" fill="#5d9cec"/><path d="m228.484375 435.984375c84.847656 0 119.421875-47.082031 130.742187-68.417969-6.726562-3.460937-13.710937-7.34375-20.925781-11.78125-8.265625 15.734375-36.640625 56.199219-109.816406 56.199219-73.585937 0-101.648437-40.34375-109.832031-56.175781-7.207032 4.429687-14.183594 8.3125-20.90625 11.765625 11.3125 21.328125 45.890625 68.410156 130.738281 68.410156zm0 0" fill="#e6e9ed"/><path d="m228.484375 411.984375c73.175781 0 101.550781-40.464844 109.816406-56.191406-5.800781-3.554688-11.730469-7.433594-17.816406-11.785157v-40.03125l-18.558594-1.761718c-24.640625 21.121094-51.761719 33.761718-73.441406 33.761718s-48.800781-12.640624-73.441406-33.761718l-18.558594 1.761718v40.03125c-6.097656 4.351563-12.03125 8.230469-17.832031 11.800782 8.183594 15.832031 36.246094 56.175781 109.832031 56.175781zm0 0" fill="#e5b6a8"/><path d="m367.84375 176 .640625 16c0 44.71875-20.71875 87.679688-48 120-28.71875 33.917969-64.71875 56-92 56s-63.28125-22.082031-92-56c-27.28125-32.320312-48-75.28125-48-120v-14.375c45.03125-23.65625 155.390625-70.839844 248.007813-65.394531zm0 0" fill="#f0c7b7"/><path d="m112.476562 24c-.402343.160156 275.136719-113.359375 255.367188 152l-31.351562-55.761719c-120.800782-7.109375-267.777344 68.160157-271.929688 70.632813-.078125.089844-.078125.089844-.078125.089844 0-120 70.3125-153.601563 70.3125-153.601563zm0 0" fill="#656d78"/><path d="m212.492188 208.007812c0 4.398438-3.601563 8-8 8h-56c-4.398438 0-8-3.601562-8-8v-16c0-4.398437 3.601562-8 8-8h56c4.398437 0 8 3.601563 8 8zm0 0" fill="#5d9cec"/><path d="m159.644531 216.007812h16.566407l8.570312-32h-16.5625zm0 0" fill="#87bcf4"/><path d="m180.492188 216.007812h4.28125l8.574218-32h-4.28125zm0 0" fill="#87bcf4"/><path d="m316.484375 208.007812c0 4.398438-3.601563 8-8 8h-56c-4.402344 0-8-3.601562-8-8v-16c0-4.398437 3.597656-8 8-8h56c4.398437 0 8 3.601563 8 8zm0 0" fill="#5d9cec"/><path d="m263.636719 216.007812h16.566406l8.570313-32h-16.5625zm0 0" fill="#87bcf4"/><path d="m284.484375 216.007812h4.28125l8.574219-32h-4.28125zm0 0" fill="#87bcf4"/><path d="m244.484375 204.238281h-31.992187c-2.207032 0-4-1.789062-4-4 0-2.207031 1.792968-4 4-4h31.992187c2.207031 0 4 1.792969 4 4 0 2.210938-1.792969 4-4 4zm0 0" fill="#545c66"/><g fill="#656d78"><path d="m204.492188 220.007812h-56c-6.617188 0-12-5.382812-12-12v-16c0-6.617187 5.382812-12 12-12h56c6.617187 0 12 5.382813 12 12v16c0 6.617188-5.382813 12-12 12zm-56-32c-2.199219 0-4 1.800782-4 4v16c0 2.199219 1.800781 4 4 4h56c2.199218 0 4-1.800781 4-4v-16c0-2.199218-1.800782-4-4-4zm0 0"/><path d="m308.484375 220.007812h-56c-6.617187 0-12-5.382812-12-12v-16c0-6.617187 5.382813-12 12-12h56c6.617187 0 12 5.382813 12 12v16c0 6.617188-5.382813 12-12 12zm-56-32c-2.199219 0-4 1.800782-4 4v16c0 2.199219 1.800781 4 4 4h56c2.199219 0 4-1.800781 4-4v-16c0-2.199218-1.800781-4-4-4zm0 0"/></g></svg>