<?xml version="1.0" encoding="UTF-8" standalone="no"?>
<svg xmlns:rdf="http://www.w3.org/1999/02/22-rdf-syntax-ns#" xmlns="http://www.w3.org/2000/svg" height="1868" viewBox="0 0 1389 1868" width="1389" version="1.1" xmlns:cc="http://creativecommons.org/ns#" xmlns:dc="http://purl.org/dc/elements/1.1/">
<path d="m639.5 1867.3c-478.37-12.118-740.5-120.99-500.64-207.94 14.587-5.2876 14.582-5.2883 7.298 0.9874-104.08 89.677 181.28 177.62 576.34 177.61 383.69-0.01 667.96-83.544 582.69-171.24-4.145-4.2625-7.3081-7.75-7.0292-7.75 5.553 0 47.53 19.858 60.959 28.838 143.41 95.894-240.42 191.63-719.62 179.49zm-9-231.94c-178.28-33.53-320.23-162.75-361.02-328.65-1.926-7.8341-3.8373-15.543-4.2472-17.131l-0.74532-2.8876-5.8665 7.0427c-86.33 103.6-257.75 40.3-258.03-95.3-0.2811-131.4 158.24-197.2 250.52-104.1 30.235 30.522 41.259 59.463 42.88 112.57 6.601 216.31 143.08 386.64 343.01 428.08 16.587 3.4376 11.432 3.6866-6.5 0.314zm-457.33-324.8c84.25-21.656 111.8-125.91 49.093-185.76-59.318-56.614-157.76-29.656-180.69 49.482-23.164 79.933 51.205 156.94 131.6 136.28zm627.33 324.4c199.44-42.705 334.85-210.56 342.5-424.54 1.8315-51.251 13.09-79.772 43.436-110.03 45.182-45.053 129-59.855 122.08-21.56-1.9566 10.831-8.1361 14.802-25.041 16.093-63.538 4.8498-100.98 48.079-103.5 119.5-7.3771 209.21-159 380.59-371.98 420.47-20.128 3.7684-24.976 3.8144-7.4946 0.071zm-132.5-470.7c-224.11-6.1-396.27-50.2-403.36-103.3-0.45195-3.3885-0.38063-3.8242 0.28876-1.764 22.718 69.919 429.83 107.61 720.04 66.667 111-15.661 178.32-39.649 187.1-66.667 0.6694-2.0602 0.7407-1.6245 0.2888 1.764-8.3047 62.265-243.47 110.44-504.36 103.33zm-394.93-128.3c45.66-57.43 311.04-98.44 543.93-84.06 183.07 11.3 314.38 43.114 346.93 84.056l3.5737 4.4949-5.4224-4.8027c-103.54-91.706-783.62-91.706-887.16 0l-5.4224 4.8027 3.5737-4.4949zm549.45-212.51c61.2-121.99 56.16-151.33-48.49-281.99-60.389-75.401-69.685-101.89-56.493-161 8.6814-38.894 50.51-80.143 115.96-114.35 10.853-5.6722 10.648-5.4272-2.3776 2.8494-57.163 36.321-84.259 79.544-81.81 130.5 1.6355 34.028 14.53 57.689 57.377 105.28 106.97 118.83 112.26 198.65 21.221 320.52-18.235 24.411-18.509 24.319-5.3926-1.821zm-107.52-193.59c-82.04-71.65-106.67-107.07-116.45-167.4-8.31-51.33-2.57-101.5 20.03-175.07 4.22-13.71 9.65-31.45 12.08-39.43 33.45-109.85 16.55-197.98-46.68-243.28-1.54-1.1049-1.72-1.4256-0.48-0.8468 33.73 15.7 71.89 69.207 85.95 120.53 13.66 49.84 11.15 74.56-15.92 156.48-25.6 77.47-31.51 115.15-26.07 166.12 8.8156 82.543 29.775 124.63 91.948 184.64 8.751 8.4466 15.726 15.343 15.5 15.326-0.23-0.02-9.19-7.7-19.91-17.07z"/>
</svg>
